<?xml version="1.0" encoding="utf-8"?>
<!-- Generator: Adobe Illustrator 24.0.1, SVG Export Plug-In . SVG Version: 6.00 Build 0)  -->
<svg version="1.1" id="图层_1" xmlns="http://www.w3.org/2000/svg" xmlns:xlink="http://www.w3.org/1999/xlink" x="0px" y="0px"
	 viewBox="0 0 1292 700" style="enable-background:new 0 0 1292 700;" xml:space="preserve">
<style type="text/css">
	.st0{fill:none;}
	.st1{fill:#3FE4CF;}
</style>
<g>
	<g>
		<path class="st1" d="M942,703.5c-193,0-350-157-350-350s157-350,350-350s350,157,350,350S1135,703.5,942,703.5z M942,29.4
			c-178.7,0-324.1,145.4-324.1,324.1S763.3,677.6,942,677.6S1266,532.2,1266,353.5S1120.7,29.4,942,29.4z"/>
	</g>
	<g>
		<path class="st1" d="M942,562.5c-28.8,0-48-23.8-48-53.2V273.6c0-29.4,18.9-48.7,47.8-48.7h107.7c11.2,0,20.5-11.7,20.5-23.3
			c0-13.2-9.1-24.9-20.3-24.9H798c-8.8,0-16-7.2-16-16.1s7.2-16.1,16-16.1h251.7c28.8,0,52.3,26.2,52.3,55.5c0,30.9-23.7,57-52.5,57
			H941.7c-11.2,0-15.8,5-15.8,16.6v235.7c0,11.6,4.8,21,16,21c11.2,0,16-10,16-21.7l0-187.3c0-8.9,7.2-16.1,16-16.1l0,0
			c8.8,0,16,7.2,16,16.1l0,187.3C990,538,970.8,562.5,942,562.5z"/>
	</g>
</g>
<g>
	<g>
		<path class="st1" d="M350,703.5c-193,0-350-157-350-350s157-350,350-350s350,157,350,350S543,703.5,350,703.5z M350,29.4
			c-178.7,0-324.1,145.4-324.1,324.1S171.3,677.6,350,677.6s324.1-145.4,324.1-324.1S528.7,29.4,350,29.4z"/>
	</g>
	<g>
		<path class="st1" d="M424.6,325.7h-0.2V381h0.2c58.2,0,87.8,21.4,87.8,63.7c0,41.4-29.5,62.4-87.8,62.4l-30.8,0V230.9h-87.6v95
			l-30.8,0c-58.2,0-87.8-21-87.8-62.4c0-42.3,29.5-63.7,87.8-63.7h0.2v-55.4h-0.2c-88.5,0-141.4,44.5-141.4,119
			c0,73.8,52.9,117.8,141.4,117.8l30.8,0v125.8l-126.7,0v55.4l245.2,0c88.5,0,141.4-44,141.4-117.8
			C566,370.2,513.1,325.7,424.6,325.7z"/>
		<rect x="306.2" y="144.5" class="st1" width="214.4" height="55.4"/>
	</g>
</g>
</svg>
