<?xml version="1.0" encoding="utf-8"?>
<!-- Generator: Adobe Illustrator 24.0.1, SVG Export Plug-In . SVG Version: 6.00 Build 0)  -->
<svg version="1.1" id="图层_1" xmlns="http://www.w3.org/2000/svg" xmlns:xlink="http://www.w3.org/1999/xlink" x="0px" y="0px"
	 viewBox="0 0 700 700" style="enable-background:new 0 0 700 700;" xml:space="preserve">
<style type="text/css">
	.st0{fill:none;}
	.st1{fill:#3FE4CF;}
</style>
<g>
	<g>
		<circle class="st0" cx="350" cy="350" r="350"/>
		<g>
			<path class="st1" d="M350,700C157,700,0,543,0,350S157,0,350,0s350,157,350,350S543,700,350,700z M350,25.9
				C171.3,25.9,25.9,171.3,25.9,350S171.3,674.1,350,674.1S674.1,528.7,674.1,350S528.7,25.9,350,25.9z"/>
		</g>
	</g>
	<g>
		<path class="st1" d="M424.6,322.2h-0.2v55.4h0.2c58.2,0,87.8,21.4,87.8,63.7c0,41.4-29.5,62.4-87.8,62.4l-30.8,0V227.4h-87.6v95
			l-30.8,0c-58.2,0-87.8-21-87.8-62.4c0-42.3,29.5-63.7,87.8-63.7h0.2V141h-0.2C186.9,141,134,185.5,134,260
			c0,73.8,52.9,117.8,141.4,117.8l30.8,0v125.8l-126.7,0V559l245.2,0c88.5,0,141.4-44,141.4-117.8
			C566,366.7,513.1,322.2,424.6,322.2z"/>
		<rect x="306.2" y="141" class="st1" width="214.4" height="55.4"/>
	</g>
</g>
</svg>
